<svg xmlns="http://www.w3.org/2000/svg" viewBox="0 100 1200 800">
  <polyline points="612,744 535,666 535,440 850,125" style="fill:none;stroke:red;stroke-width:15" id="u1"/>
  <polyline points="1047,312 991,365 928,335 815,455 685,332 545,332 450,418 450,481 495,520 536,520" style="fill:none;stroke:violet;stroke-width:15" id="u2"/>
  <polyline points="230,338 350,450 650,450 765,565 765,650" style="fill:none;stroke:orange;stroke-width:15" id="u3"/>
  <polyline points="140,540 575,540 617,500 617,400 485,237 485,164" style="fill:none;stroke:green;stroke-width:15" id="u4"/>
  <polyline points="210,805 350,675 350,318 450,219 515, 219 613,120" style="fill:none;stroke:brown;stroke-width:15" id="u6"/>
  <circle id="siebenhirten" cx="215" cy="800" r="10" stroke="black" stroke-width="3" fill="white"/>
  <!--<text x="95" y="805" fill="black">Siebenhirten</text>-->
  <circle id="perfektastrasse" cx="240" cy="775" r="10" stroke="black" stroke-width="3" fill="white"/>
  <!--<text x="260" y="785" fill="black">Perfektastrasse</text>-->
  <circle id="erlaaerstrasse" cx="270" cy="750" r="10" stroke="black" stroke-width="3" fill="white"/>
  <!--<text x="135" y="750" fill="black">Erlaaer Straße</text>-->
  <circle id="alterlaa" cx="290" cy="730" r="10" stroke="black" stroke-width="3" fill="white"/>
  <!--<text x="310" y="735" fill="black">Alterlaa</text>-->
  <circle id="amschoepfwerk" cx="310" cy="710" r="10" stroke="black" stroke-width="3" fill="white"/>
  <!--<text x="170" y="710" fill="black">Am Schöpfwerk</text>-->
  <circle id="tschertegasse" cx="330" cy="695" r="10" stroke="black" stroke-width="3" fill="white"/>
  <!--<text x="345" y="705" fill="black">Tschertegasse</text>-->
  <circle id="bahnhofmeidling" cx="350" cy="675" r="10" stroke="black" stroke-width="3" fill="white"/>
  <!--<text x="365" y="680" fill="black">Bahnhof Meidling</text>-->
  <circle id="laengenfeldgasse" cx="350" cy="540" r="10" stroke="black" stroke-width="3" fill="white"/>
  <!--<text x="370" y="545" fill="black" transform="rotate(45, 350, 540)">Längenfeldgasse</text>-->
  <circle id="gumpendorferstrasse" cx="350" cy="495" r="10" stroke="black" stroke-width="3" fill="white"/>
  <!--<text x="180" y="497" fill="black">Gumpendorferstraße</text>-->
  <circle id="westbahnhof" cx="350" cy="448" r="10" stroke="black" stroke-width="3" fill="white"/>
  <!--<text x="240" y="448" fill="black">Westbahnhof</text>-->
  <circle id="burggassestadthalle" cx="350" cy="410" r="10" stroke="black" stroke-width="3" fill="white"/>
  <!--<text x="360" y="410" fill="black">Burggasse-Stadthalle</text>-->
  <circle id="thalistrasse" cx="350" cy="375" r="10" stroke="black" stroke-width="3" fill="white"/>
  <circle id="josefstaedterstrasse" cx="350" cy="340" r="10" stroke="black" stroke-width="3" fill="white"/>
  <circle id="alserstrasse" cx="370" cy="300" r="10" stroke="black" stroke-width="3" fill="white"/>
  <circle id="michelbeuern-akh" cx="390" cy="280" r="10" stroke="black" stroke-width="3" fill="white"/>
  <circle id="wahringerstrasse-volksoper" cx="410" cy="260" r="10" stroke="black" stroke-width="3" fill="white"/>
  <circle id="nussdorferstrasse" cx="430" cy="240" r="10" stroke="black" stroke-width="3" fill="white"/>
  <circle id="spittelau" cx="485" cy="220" r="10" stroke="black" stroke-width="3" fill="white"/>
  <circle id="jaegerstrasse" cx="510" cy="219" r="10" stroke="black" stroke-width="3" fill="white"/>
  <circle id="dresdnerstrasse" cx="530" cy="205" r="10" stroke="black" stroke-width="3" fill="white"/>
  <circle id="handelskai" cx="550" cy="185" r="10" stroke="black" stroke-width="3" fill="white"/>
  <circle id="neuedonau" cx="575" cy="160" r="10" stroke="black" stroke-width="3" fill="white"/>
  <circle id="floridsdorf" cx="605" cy="125" r="10" stroke="black" stroke-width="3" fill="white"/>
</svg>
