 <svg xmlns="http://www.w3.org/2000/svg" viewBox="0 100 1200 800">
           <polyline points="612,744 535,666 535,440 850,125"
  style="fill:none;stroke:red;stroke-width:15" id="u1"/>
              <polyline points="1047,312 991,365 928,335 815,455 685,332 545,332 450,418 450,481 495,520 536,520"
  style="fill:none;stroke:violet;stroke-width:15" id="u2"/>
        <polyline points="230,338 350,450 650,450 765,565 765,650"
  style="fill:none;stroke:orange;stroke-width:15" id="u3"/>
       <polyline points="140,540 575,540 617,500 617,400 485,237 485,164"
  style="fill:none;stroke:green;stroke-width:15" id="u4"/>
    <polyline points="210,805 350,675 350,318 450,219 515, 219 613,120"
  style="fill:none;stroke:brown;stroke-width:15" id="u6"/>
   <circle cx="215" cy="800" r="10" stroke="black" stroke-width="3" fill="white" />
   <text x="95" y="805" fill="black">Siebenhirten</text>
</svg> 